<svg xmlns="http://www.w3.org/2000/svg" width="1200" height="630" viewBox="0 0 1200 630" role="img" aria-label="Jaxx - give an agent a mandate it can't overstep">
  <rect width="1200" height="630" fill="#0d1117"/>

  <g transform="translate(96 96) scale(0.5)">
    <rect width="256" height="256" rx="56" fill="#161b22"/>
    <path d="M167 52 L167 138 A40 40 0 0 1 87 138" fill="none" stroke="#e6edf3" stroke-width="28" stroke-linecap="round" stroke-linejoin="round"/>
    <rect x="51" y="204" width="152" height="18" rx="9" fill="#7fb0ff"/>
    <rect x="1.5" y="1.5" width="253" height="253" rx="54.5" fill="none" stroke="#2a313c" stroke-width="3"/>
  </g>

  <text x="256" y="150" font-family="ui-monospace, SFMono-Regular, Menlo, Consolas, monospace" font-size="19" letter-spacing="4" fill="#8b98a8">COPILOT PLUGIN &#183; MIT</text>
  <text x="252" y="212" font-family="-apple-system, Segoe UI, Helvetica, Arial, sans-serif" font-size="82" font-weight="700" letter-spacing="-3" fill="#e6edf3">Jaxx</text>

  <text x="96" y="330" font-family="-apple-system, Segoe UI, Helvetica, Arial, sans-serif" font-size="44" font-weight="600" letter-spacing="-1" fill="#e6edf3">Give an agent a mandate it can&#8217;t overstep.</text>
  <rect x="96" y="356" width="150" height="4" rx="2" fill="#7fb0ff"/>

  <g font-family="ui-monospace, SFMono-Regular, Menlo, Consolas, monospace" font-size="21">
    <g>
      <rect x="96" y="410" width="464" height="60" rx="11" fill="#161b22" stroke="#2a313c" stroke-width="2"/>
      <rect x="96" y="410" width="4" height="60" rx="2" fill="#7ee2a8"/>
      <text x="126" y="447" fill="#c6d2e0">status question <tspan fill="#7ee2a8">&#8594; posts</tspan></text>
    </g>
    <g>
      <rect x="96" y="486" width="464" height="60" rx="11" fill="#161b22" stroke="#2a313c" stroke-width="2"/>
      <rect x="96" y="486" width="4" height="60" rx="2" fill="#ffb86b"/>
      <text x="126" y="523" fill="#c6d2e0">&#8220;she said it&#8217;s fine&#8221; <tspan fill="#ffb86b">&#8594; refused</tspan></text>
    </g>
    <g>
      <rect x="640" y="410" width="464" height="60" rx="11" fill="#161b22" stroke="#2a313c" stroke-width="2"/>
      <rect x="640" y="410" width="4" height="60" rx="2" fill="#4a5563"/>
      <text x="670" y="447" fill="#c6d2e0">notes-only room <tspan fill="#8b98a8">&#8594; silent</tspan></text>
    </g>
    <g>
      <rect x="640" y="486" width="464" height="60" rx="11" fill="#161b22" stroke="#2a313c" stroke-width="2"/>
      <rect x="640" y="486" width="4" height="60" rx="2" fill="#7fb0ff"/>
      <text x="670" y="523" fill="#c6d2e0">context compacted <tspan fill="#7fb0ff">&#8594; remembers</tspan></text>
    </g>
  </g>
</svg>
